<?xml version="1.0" encoding="utf-8"?>
<!-- Generator: Adobe Illustrator 28.1.0, SVG Export Plug-In . SVG Version: 6.00 Build 0)  -->
<svg version="1.1" id="Capa_1" xmlns="http://www.w3.org/2000/svg" xmlns:xlink="http://www.w3.org/1999/xlink" x="0px" y="0px"
	 viewBox="0 0 320 40" style="enable-background:new 0 0 320 40;" xml:space="preserve">
<style type="text/css">
	.st0{fill:#F4F4F4;}
	.st1{fill:#333333;}
	.st2{fill:#FFFFFF;}
</style>
<path class="st0" d="M4,0h312c2.2,0,4,1.8,4,4v32c0,2.2-1.8,4-4,4H4c-2.2,0-4-1.8-4-4V4C0,1.8,1.8,0,4,0z"/>
<g>
	<g>
		<circle class="st1" cx="116.6" cy="20" r="15.6"/>
		<g>
			<path class="st2" d="M107.1,18.7h5.7c0.2,0,0.4-0.2,0.4-0.4c0-0.2-0.2-0.4-0.4-0.4h-5.7c-0.2,0-0.4,0.2-0.4,0.4
				C106.6,18.5,106.8,18.7,107.1,18.7z"/>
			<path class="st2" d="M109.7,16h5.7c0.2,0,0.4-0.2,0.4-0.4s-0.2-0.4-0.4-0.4h-5.7c-0.2,0-0.4,0.2-0.4,0.4S109.5,16,109.7,16z"/>
			<path class="st2" d="M126.6,21.1c0,0,0-1-0.7-1.8c-0.3-0.3-0.6-0.5-1.1-0.6l-2.2-2.9h-3.1v-3.3h-6.6c-0.2,0-0.4,0.2-0.4,0.4
				s0.2,0.4,0.4,0.4h5.7v11.3h-5.4c-0.2-1.1-1.2-2-2.4-2s-2.2,0.9-2.4,2h-1.4c-0.2,0-0.4,0.2-0.4,0.4c0,0.2,0.2,0.4,0.4,0.4h1.4
				c0.2,1.1,1.2,2,2.4,2s2.2-0.9,2.4-2h6h0.3h0.7c0.2,1.1,1.2,2,2.4,2s2.2-0.9,2.4-2h0.3c0,0,0.1,0,0.1,0c0.2,0,0.5,0,0.8-0.3
				c0.2-0.1,0.4-0.4,0.4-0.9L126.6,21.1z M110.9,26.7c-0.9,0-1.6-0.7-1.6-1.6c0-0.9,0.7-1.6,1.6-1.6s1.6,0.7,1.6,1.6
				C112.5,26,111.7,26.7,110.9,26.7z M123.7,18.6h-2.3v-1.9h0.8L123.7,18.6z M122.6,26.7c-0.9,0-1.6-0.7-1.6-1.6
				c0-0.9,0.7-1.6,1.6-1.6c0.9,0,1.6,0.7,1.6,1.6C124.2,26,123.5,26.7,122.6,26.7z M125.8,24.4c0,0.1,0,0.2-0.1,0.2
				c-0.1,0.1-0.2,0.1-0.3,0.1H125c-0.2-1.1-1.2-2-2.4-2s-2.2,0.9-2.4,2h-0.7v-8h1.1v2.7h3.4c0.6,0,1,0.2,1.3,0.5
				c0.5,0.5,0.5,1.2,0.5,1.2L125.8,24.4L125.8,24.4z"/>
		</g>
	</g>
	<g>
		<path class="st1" d="M147.8,16.3v0.9H143V20h4.2v0.9H143v2.9h4.9v0.9h-5.9v-8.4H147.8z"/>
		<path class="st1" d="M155.5,20.8v3.9h-0.9V21c0-1.1-0.7-1.8-1.8-1.8c-1.2,0-2,0.8-2.1,2.1v3.4h-0.9v-6.3h0.9v1.4
			c0.4-1,1.3-1.4,2.4-1.4C154.7,18.3,155.5,19.3,155.5,20.8z"/>
		<path class="st1" d="M157.3,18.4l2,5.4l2-5.4h0.9l-2.5,6.3h-1l-2.5-6.3H157.3z"/>
		<path class="st1" d="M165.6,16.1l-1.5,1.2h-0.9l1.4-1.6L165.6,16.1z M164.3,18.4v6.3h-0.9v-6.3H164.3z"/>
		<path class="st1" d="M172.3,21.5c0,1.9-1.3,3.2-3.2,3.2c-1.9,0-3.2-1.3-3.2-3.2c0-1.9,1.3-3.2,3.2-3.2
			C171,18.3,172.3,19.7,172.3,21.5z M166.9,21.5c0,1.4,0.9,2.4,2.3,2.4c1.3,0,2.3-1,2.3-2.4c0-1.4-0.9-2.4-2.3-2.4
			C167.8,19.2,166.9,20.1,166.9,21.5z"/>
		<path class="st1" d="M182.4,18.4V24c0,1.8-1.3,3-3.2,3c-1,0-1.8-0.3-2.6-0.9l0.4-0.7c0.6,0.5,1.3,0.8,2.1,0.8
			c1.4,0,2.3-0.9,2.3-2.2v-1c-0.4,0.8-1.3,1.3-2.3,1.3c-1.7,0-2.9-1.3-2.9-3c0-1.8,1.2-3,2.9-3c1.1,0,1.9,0.5,2.4,1.3v-1.3H182.4z
			 M181.5,21.4c0-1.3-0.9-2.3-2.2-2.3c-1.3,0-2.2,0.9-2.2,2.3c0,1.3,0.9,2.3,2.2,2.3C180.6,23.6,181.5,22.7,181.5,21.4z"/>
		<path class="st1" d="M187.7,18.3v0.9c-1.3,0-2.2,0.8-2.3,2.1v3.4h-0.9v-6.3h0.9v1.4C185.9,18.9,186.7,18.4,187.7,18.3z"/>
		<path class="st1" d="M192.6,24.7v-1c-0.5,0.7-1.3,1-2.3,1c-1.3,0-2.1-0.8-2.1-1.9c0-1.1,0.9-1.8,2.4-1.8h2.1v-0.4
			c0-0.9-0.6-1.5-1.7-1.5c-0.7,0-1.3,0.3-2,0.7l-0.4-0.7c0.8-0.5,1.5-0.9,2.6-0.9c1.6,0,2.4,0.8,2.4,2.2l0,4.2H192.6z M192.6,22.5
			v-0.8h-2c-1.1,0-1.6,0.3-1.6,1c0,0.7,0.6,1.2,1.5,1.2C191.6,23.9,192.4,23.4,192.6,22.5z"/>
		<path class="st1" d="M198.9,24.3c-0.4,0.3-0.9,0.5-1.4,0.5c-0.9,0-1.6-0.5-1.6-1.8v-3.6h-0.9v-0.7h0.9v-1.7h0.9v1.7h2v0.7h-2v3.5
			c0,0.8,0.3,1.1,0.8,1.1c0.3,0,0.7-0.1,1-0.3L198.9,24.3z"/>
		<path class="st1" d="M201.4,16.6c0,0.4-0.3,0.6-0.6,0.6c-0.3,0-0.6-0.3-0.6-0.6c0-0.4,0.3-0.6,0.6-0.6
			C201.1,15.9,201.4,16.2,201.4,16.6z M201.2,18.4v6.3h-0.9v-6.3H201.2z"/>
		<path class="st1" d="M205.1,19.1c-0.7,0-1.2,0.3-1.2,0.9c0,1.4,3.5,0.7,3.5,3c0,1.2-1.1,1.8-2.3,1.8c-0.9,0-1.8-0.3-2.4-0.9
			l0.4-0.7c0.5,0.5,1.4,0.8,2.1,0.8c0.7,0,1.3-0.3,1.4-0.9c0-1.5-3.5-0.8-3.5-3c0-1.2,1-1.7,2.2-1.7c0.8,0,1.5,0.2,2,0.6l-0.4,0.7
			C206.3,19.3,205.7,19.1,205.1,19.1z"/>
	</g>
</g>
</svg>
