<?xml version="1.0" encoding="utf-8"?>
<!-- Generator: $$$/GeneralStr/196=Adobe Illustrator 27.6.0, SVG Export Plug-In . SVG Version: 6.00 Build 0)  -->
<svg version="1.1" id="Capa_1" xmlns="http://www.w3.org/2000/svg" xmlns:xlink="http://www.w3.org/1999/xlink" x="0px" y="0px"
	 width="320px" height="40px" viewBox="0 0 320 40" style="enable-background:new 0 0 320 40;" xml:space="preserve">
<style type="text/css">
	.st0{fill:#F4F4F4;}
	.st1{fill:#333333;}
	.st2{fill:#FFFFFF;}
</style>
<path class="st0" d="M4,0h312c2.2,0,4,1.8,4,4v32c0,2.2-1.8,4-4,4H4c-2.2,0-4-1.8-4-4V4C0,1.8,1.8,0,4,0z"/>
<rect x="99.4" y="60" style="fill:none;" width="176.3" height="9.4"/>
<text transform="matrix(1 0 0 1 99.3721 68.9418)" class="st1" style="font-family:'ECIFont-Light'; font-size:12px;">Click &amp; Car</text>
<rect x="99.4" y="78.7" style="fill:none;" width="176.3" height="9.4"/>
<text transform="matrix(1 0 0 1 99.3721 87.5771)" class="st1" style="font-family:'ECIFont-Light'; font-size:12px;">Devolución gratis en tienda</text>
<g>
	<g>
		<circle class="st1" cx="124.7" cy="20" r="15.6"/>
	</g>
	<g>
		<path class="st1" d="M152.8,17.2c-1.9,0-3.4,1.5-3.4,3.3c0,1.8,1.5,3.3,3.4,3.3c0.9,0,1.8-0.4,2.5-1l0.6,0.6
			c-0.8,0.8-2,1.3-3.1,1.3c-2.4,0-4.3-1.9-4.3-4.2c0-2.4,1.9-4.2,4.4-4.2c1.2,0,2.3,0.5,3.1,1.2l-0.6,0.7
			C154.6,17.6,153.7,17.2,152.8,17.2z"/>
		<path class="st1" d="M158.4,15.8v8.9h-0.9v-8.9H158.4z"/>
		<path class="st1" d="M161.8,16.6c0,0.4-0.3,0.6-0.6,0.6s-0.6-0.3-0.6-0.6c0-0.4,0.3-0.6,0.6-0.6S161.8,16.2,161.8,16.6z
			 M161.7,18.4v6.3h-0.9v-6.3H161.7z"/>
		<path class="st1" d="M166.5,19.2c-1.3,0-2.2,1-2.2,2.4c0,1.4,0.9,2.4,2.2,2.4c0.8,0,1.5-0.3,2-0.8l0.5,0.6
			c-0.6,0.7-1.4,1.1-2.5,1.1c-1.8,0-3.1-1.3-3.1-3.2c0-1.9,1.3-3.2,3.1-3.2c1,0,1.9,0.3,2.4,0.9l-0.5,0.6
			C167.9,19.5,167.3,19.2,166.5,19.2z"/>
		<path class="st1" d="M173,21.5l-1.3,1.4v1.8h-0.9v-8.9h0.9v5.9l3.3-3.3h1.1l-2.4,2.4l2.6,3.9h-1.1L173,21.5z"/>
		<path class="st1" d="M187.2,24.9l-1.4-1.4c-0.8,0.8-1.7,1.3-2.6,1.3c-1.4,0-2.5-1-2.5-2.3c0-1.2,0.9-1.8,1.9-2.4
			c-0.6-0.8-0.9-1.4-0.9-2c0-1,0.8-1.8,2.1-1.8c1.2,0,1.9,0.7,1.9,1.7c0,1.1-1,1.7-2.1,2.3c0.5,0.6,1.2,1.3,2.1,2.1
			c0.3-0.5,0.6-1,0.9-1.6l0.6,0.5c-0.3,0.6-0.6,1.2-0.9,1.7l1.5,1.4L187.2,24.9z M185.3,22.9c-0.9-0.9-1.7-1.7-2.3-2.4
			c-0.8,0.5-1.5,1-1.5,1.8c0,0.9,0.8,1.6,1.7,1.6C184,24,184.7,23.6,185.3,22.9z M183.3,19.7c0.9-0.5,1.7-0.9,1.7-1.8
			c0-0.6-0.5-1.1-1.2-1.1c-0.8,0-1.3,0.5-1.3,1.2C182.5,18.6,182.8,19.1,183.3,19.7z"/>
		<path class="st1" d="M196.1,17.2c-1.9,0-3.4,1.5-3.4,3.3c0,1.8,1.5,3.3,3.4,3.3c0.9,0,1.8-0.4,2.5-1l0.6,0.6
			c-0.8,0.8-2,1.3-3.1,1.3c-2.4,0-4.3-1.9-4.3-4.2c0-2.4,1.9-4.2,4.4-4.2c1.2,0,2.3,0.5,3.1,1.2l-0.6,0.7
			C197.9,17.6,197,17.2,196.1,17.2z"/>
		<path class="st1" d="M204.7,24.7v-1c-0.5,0.7-1.3,1-2.3,1c-1.3,0-2.1-0.8-2.1-1.9c0-1.1,0.9-1.8,2.4-1.8h2.1v-0.4
			c0-0.9-0.6-1.5-1.7-1.5c-0.7,0-1.3,0.3-2,0.7l-0.4-0.7c0.8-0.5,1.5-0.9,2.6-0.9c1.6,0,2.4,0.8,2.4,2.2l0,4.2H204.7z M204.7,22.5
			v-0.8h-2c-1.1,0-1.6,0.3-1.6,1c0,0.7,0.6,1.2,1.5,1.2C203.6,24,204.4,23.4,204.7,22.5z"/>
		<path class="st1" d="M210.9,18.4v0.9c-1.3,0-2.2,0.8-2.3,2.1v3.4h-0.9v-6.3h0.9v1.4C209,18.9,209.8,18.4,210.9,18.4z"/>
	</g>
	<g id="Grupo_65494">
		<g id="Grupo_65318">
			<g id="Grupo_258_00000180351747386508038450000005485319201038811551_">
				<path id="Trazado_447_00000055697836473081104390000006477453639281836676_" class="st2" d="M113.1,21c0.1,0.1,0.1,0.1,0.2,0.1
					h0.1h8.6c0.2,0,0.4-0.2,0.4-0.4l0,0L122,13c0-0.2-0.2-0.4-0.4-0.4c0,0,0,0,0,0h-1.7c-0.1-1.3-1.3-2.2-2.6-2c-1.1,0.1-1.9,1-2,2
					h-1.6c-0.2,0-0.4,0.2-0.4,0.4l-0.3,7.7C113,20.8,113,20.9,113.1,21z M117.6,11.4c0.7,0,1.3,0.5,1.5,1.2h-3
					C116.2,11.9,116.9,11.4,117.6,11.4z M121.2,13.4l0.4,6.9h-7.8l0.2-6.9H121.2z"/>
			</g>
			<g id="Trazado_10487_00000173877360944770109370000001362779934640596654_">
				<path id="Trazado_449_00000090289942693755654770000005102161823622382989_" class="st2" d="M119.7,16.5l-3.6-1v2L119.7,16.5z"
					/>
			</g>
		</g>
		<g id="Grupo_65317">
			<path id="Trazado_18171" class="st2" d="M137.2,13.7v0.9l-1,0.1v4.1l1,0.1v1h-0.8c-3.5,0-7,0-10.5,0c-0.7,0-0.9,0.2-0.9,0.9
				c0,1.3,0,2.7,0,4c-0.1,0.9,0.5,1.7,1.3,1.8c0,0,0,0,0,0c0.1,0,0.3,0,0.4,0c0.5,0,1,0,1.5,0c0.7-2.4,1.7-3.4,3.5-3.4
				c1.8,0,2.8,1.1,3.3,3.4h2.3v1c-0.6,0-1.3,0-1.9,0c-0.3,0-0.5,0.2-0.7,0.4c-0.9,1.6-2.9,2.2-4.5,1.4c-0.6-0.3-1.1-0.8-1.4-1.4
				c-0.2-0.2-0.4-0.4-0.7-0.4c-0.5,0-0.9,0-1.4,0c-1.4,0-2.5-1.1-2.6-2.4c0-1.6,0-3.2,0-4.9c0-0.7,0.5-1.3,1.2-1.4c0,0,0,0,0,0h4
				c-0.1-0.2-0.1-0.4-0.2-0.6c-0.6-1.6-1.3-3.1-1.9-4.7c-0.1-0.5-0.5-0.8-1-0.8c-0.2,0-0.4-0.3-0.6-0.5c0.2-0.2,0.5-0.4,0.7-0.4
				c0.8-0.1,1.5,0.4,1.7,1.1c0.6,1.6,1.3,3.2,1.9,4.8c0.1,0.2,0.2,0.4,0.3,0.7l3.8-3.8C134.8,13.8,136.1,13.5,137.2,13.7z
				 M131.6,28.8c1.3,0,2.3-1,2.4-2.3v-0.1c0-1.3-1.1-2.3-2.3-2.3c-1.3,0-2.3,1.1-2.3,2.3C129.3,27.7,130.3,28.8,131.6,28.8z
				 M135,15.3l-3.5,3.5h3.5V15.3z"/>
		</g>
	</g>
</g>
</svg>
