<?xml version="1.0" encoding="utf-8"?>
<!-- Generator: $$$/GeneralStr/196=Adobe Illustrator 27.6.0, SVG Export Plug-In . SVG Version: 6.00 Build 0)  -->
<svg version="1.1" id="Capa_1" xmlns="http://www.w3.org/2000/svg" xmlns:xlink="http://www.w3.org/1999/xlink" x="0px" y="0px"
	 width="320px" height="40px" viewBox="0 0 320 40" style="enable-background:new 0 0 320 40;" xml:space="preserve">
<style type="text/css">
	.st0{fill:#F4F4F4;}
	.st1{fill:#333333;}
	.st2{fill:#FFFFF0;}
</style>
<path class="st0" d="M4,0h312c2.2,0,4,1.8,4,4v32c0,2.2-1.8,4-4,4H4c-2.2,0-4-1.8-4-4V4C0,1.8,1.8,0,4,0z"/>
<g>
	<g>
		<g>
			<circle class="st1" cx="99.3" cy="20" r="15.6"/>
		</g>
		<g id="Grupo_258">
			<path id="Trazado_447" class="st2" d="M93,26.6c0.1,0.1,0.2,0.1,0.4,0.1h0.1l13.7-2.4c0.4-0.1,0.6-0.4,0.5-0.8l0,0l-2.9-12.3
				c-0.1-0.3-0.4-0.6-0.8-0.5l-2.6,0.5c-0.6-2-2.6-3.1-4.6-2.6c-1.7,0.5-2.8,2.1-2.7,3.9l-2.6,0.5c-0.3,0.1-0.6,0.4-0.5,0.7
				l1.7,12.4C92.8,26.3,92.9,26.5,93,26.6z M97.5,10c1.2-0.2,2.3,0.5,2.7,1.5l-4.8,0.9C95.4,11.2,96.3,10.2,97.5,10L97.5,10z
				 M103.8,12.2l2.6,10.9L94,25.3l-1.5-11L103.8,12.2z"/>
			<path id="Trazado_448" class="st2" d="M108.5,28.3H91.8c-0.4,0-0.7,0.3-0.7,0.7c0,0.4,0.3,0.7,0.7,0.7h16.6
				c0.4,0,0.7-0.3,0.7-0.7C109.1,28.6,108.8,28.3,108.5,28.3z"/>
		</g>
	</g>
	<g>
		<path class="st1" d="M129.2,24.7l-1.8-2.7c-0.2,0-0.3,0-0.5,0h-2.2v2.7h-1v-8.4h3.2c2.1,0,3.3,1,3.3,2.8c0,1.4-0.7,2.3-1.9,2.7
			l2,2.9H129.2z M126.9,21.2c1.5,0,2.4-0.7,2.4-2c0-1.3-0.9-2-2.4-2h-2.2v4H126.9z"/>
		<path class="st1" d="M137.7,21.9h-5.2c0.2,1.2,1.1,2.1,2.3,2.1c0.8,0,1.5-0.3,2-0.8l0.5,0.5c-0.6,0.7-1.5,1-2.5,1
			c-1.9,0-3.1-1.3-3.1-3.2c0-1.9,1.3-3.2,3.1-3.2C136.8,18.4,137.8,19.8,137.7,21.9z M136.9,21.2c-0.1-1.2-0.9-2-2.1-2
			c-1.2,0-2.1,0.8-2.2,2H136.9z"/>
		<path class="st1" d="M141.9,19.2c-1.3,0-2.2,1-2.2,2.4c0,1.4,0.9,2.4,2.2,2.4c0.8,0,1.5-0.3,2-0.8l0.5,0.6
			c-0.6,0.7-1.4,1.1-2.5,1.1c-1.8,0-3.1-1.3-3.1-3.2c0-1.9,1.3-3.2,3.1-3.2c1,0,1.9,0.3,2.4,0.9l-0.5,0.6
			C143.3,19.5,142.6,19.2,141.9,19.2z"/>
		<path class="st1" d="M151.5,21.5c0,1.9-1.3,3.2-3.2,3.2c-1.9,0-3.2-1.3-3.2-3.2c0-1.9,1.3-3.2,3.2-3.2
			C150.2,18.4,151.5,19.7,151.5,21.5z M146.1,21.6c0,1.4,0.9,2.4,2.3,2.4c1.3,0,2.3-1,2.3-2.4c0-1.4-0.9-2.4-2.3-2.4
			C147,19.2,146.1,20.2,146.1,21.6z"/>
		<path class="st1" d="M158.7,18.4V24c0,1.8-1.3,3-3.2,3c-1,0-1.8-0.3-2.6-0.9l0.4-0.7c0.6,0.5,1.3,0.8,2.1,0.8
			c1.4,0,2.3-0.9,2.3-2.2v-1c-0.4,0.8-1.3,1.3-2.3,1.3c-1.7,0-2.9-1.3-2.9-3c0-1.8,1.2-3,2.9-3c1.1,0,1.9,0.5,2.4,1.3v-1.3H158.7z
			 M157.7,21.4c0-1.3-0.9-2.3-2.2-2.3c-1.3,0-2.2,0.9-2.2,2.3c0,1.3,0.9,2.3,2.2,2.3C156.8,23.7,157.7,22.7,157.7,21.4z"/>
		<path class="st1" d="M161.9,16.6c0,0.4-0.3,0.6-0.6,0.6c-0.3,0-0.6-0.3-0.6-0.6c0-0.4,0.3-0.6,0.6-0.6
			C161.6,16,161.9,16.2,161.9,16.6z M161.7,18.4v6.3h-0.9v-6.3H161.7z"/>
		<path class="st1" d="M169.8,15.8v8.9h-0.9v-1.4c-0.5,0.9-1.3,1.4-2.5,1.4c-1.8,0-3-1.3-3-3.2c0-1.9,1.2-3.2,3-3.2
			c1.1,0,2,0.5,2.5,1.4v-4H169.8z M168.9,21.6c0-1.4-0.9-2.4-2.3-2.4c-1.3,0-2.3,1-2.3,2.4s0.9,2.4,2.3,2.4
			C167.9,24,168.9,23,168.9,21.6z"/>
		<path class="st1" d="M176.1,24.7v-1c-0.5,0.7-1.3,1-2.3,1c-1.3,0-2.1-0.8-2.1-1.9c0-1.1,0.9-1.8,2.4-1.8h2.1v-0.4
			c0-0.9-0.6-1.5-1.7-1.5c-0.7,0-1.3,0.3-2,0.7l-0.4-0.7c0.8-0.5,1.5-0.9,2.6-0.9c1.6,0,2.4,0.8,2.4,2.2l0,4.2H176.1z M176.1,22.5
			v-0.8h-2c-1.1,0-1.6,0.3-1.6,1c0,0.7,0.6,1.2,1.5,1.2C175,24,175.8,23.4,176.1,22.5z"/>
		<path class="st1" d="M187.8,21.9h-5.2c0.2,1.2,1.1,2.1,2.3,2.1c0.8,0,1.5-0.3,2-0.8l0.5,0.5c-0.6,0.7-1.5,1-2.5,1
			c-1.9,0-3.1-1.3-3.1-3.2c0-1.9,1.3-3.2,3.1-3.2C186.9,18.4,187.9,19.8,187.8,21.9z M186.9,21.2c-0.1-1.2-0.9-2-2.1-2
			c-1.2,0-2.1,0.8-2.2,2H186.9z"/>
		<path class="st1" d="M195.2,20.8v3.9h-0.9v-3.6c0-1.1-0.7-1.8-1.8-1.8c-1.2,0-2,0.8-2.1,2.1v3.4h-0.9v-6.3h0.9v1.4
			c0.4-1,1.3-1.4,2.4-1.4C194.3,18.4,195.2,19.3,195.2,20.8z"/>
		<path class="st1" d="M203.8,24.3c-0.4,0.3-0.9,0.5-1.4,0.5c-0.9,0-1.6-0.5-1.6-1.8v-3.6h-0.9v-0.7h0.9v-1.7h0.9v1.7h2v0.7h-2v3.5
			c0,0.8,0.3,1.1,0.8,1.1c0.3,0,0.7-0.1,1-0.3L203.8,24.3z"/>
		<path class="st1" d="M206.3,16.6c0,0.4-0.3,0.6-0.6,0.6c-0.3,0-0.6-0.3-0.6-0.6c0-0.4,0.3-0.6,0.6-0.6
			C206,16,206.3,16.2,206.3,16.6z M206.1,18.4v6.3h-0.9v-6.3H206.1z"/>
		<path class="st1" d="M213.9,21.9h-5.2c0.2,1.2,1.1,2.1,2.3,2.1c0.8,0,1.5-0.3,2-0.8l0.5,0.5c-0.6,0.7-1.5,1-2.5,1
			c-1.9,0-3.1-1.3-3.1-3.2c0-1.9,1.3-3.2,3.1-3.2C212.9,18.4,214,19.8,213.9,21.9z M213,21.2c-0.1-1.2-0.9-2-2.1-2
			c-1.2,0-2.1,0.8-2.2,2H213z"/>
		<path class="st1" d="M221.3,20.8v3.9h-0.9v-3.6c0-1.1-0.7-1.8-1.8-1.8c-1.2,0-2,0.8-2.1,2.1v3.4h-0.9v-6.3h0.9v1.4
			c0.4-1,1.3-1.4,2.4-1.4C220.4,18.4,221.3,19.3,221.3,20.8z"/>
		<path class="st1" d="M229.1,15.8v8.9h-0.9v-1.4c-0.5,0.9-1.3,1.4-2.5,1.4c-1.8,0-3-1.3-3-3.2c0-1.9,1.2-3.2,3-3.2
			c1.1,0,2,0.5,2.5,1.4v-4H229.1z M228.2,21.6c0-1.4-0.9-2.4-2.3-2.4c-1.3,0-2.3,1-2.3,2.4s0.9,2.4,2.3,2.4
			C227.3,24,228.2,23,228.2,21.6z"/>
		<path class="st1" d="M235.4,24.7v-1c-0.5,0.7-1.3,1-2.3,1c-1.3,0-2.1-0.8-2.1-1.9c0-1.1,0.9-1.8,2.4-1.8h2.1v-0.4
			c0-0.9-0.6-1.5-1.7-1.5c-0.7,0-1.3,0.3-2,0.7l-0.4-0.7c0.8-0.5,1.5-0.9,2.6-0.9c1.6,0,2.4,0.8,2.4,2.2l0,4.2H235.4z M235.4,22.5
			v-0.8h-2c-1.1,0-1.6,0.3-1.6,1c0,0.7,0.6,1.2,1.5,1.2C234.3,24,235.2,23.4,235.4,22.5z"/>
	</g>
</g>
<rect x="99.4" y="78.7" style="fill:none;" width="176.3" height="9.4"/>
<text transform="matrix(1 0 0 1 99.3721 87.5771)" class="st1" style="font-family:'ECIFont-Light'; font-size:12px;">Devolución gratis en tienda</text>
<g id="Trazado_10487">
	<path id="Trazado_449" class="st2" d="M102.4,18.1l-6.1-0.6l0.6,3.3L102.4,18.1z"/>
</g>
</svg>
