<?xml version="1.0" encoding="utf-8"?>
<!-- Generator: Adobe Illustrator 28.1.0, SVG Export Plug-In . SVG Version: 6.00 Build 0)  -->
<svg version="1.1" id="Capa_1" xmlns="http://www.w3.org/2000/svg" xmlns:xlink="http://www.w3.org/1999/xlink" x="0px" y="0px"
	 viewBox="0 0 320 40" style="enable-background:new 0 0 320 40;" xml:space="preserve">
<style type="text/css">
	.st0{fill:#F4F4F4;}
	.st1{fill:#333333;}
	.st2{fill:#FFFFFF;}
</style>
<path class="st0" d="M4,0h312c2.2,0,4,1.8,4,4v32c0,2.2-1.8,4-4,4H4c-2.2,0-4-1.8-4-4V4C0,1.8,1.8,0,4,0z"/>
<g>
	<g>
		<g>
			<path class="st1" d="M108.8,20.5c0,2.4-1.9,4.2-4.4,4.2h-3.4v-8.4h3.4C107,16.3,108.8,18.1,108.8,20.5z M107.9,20.5
				c0-1.9-1.5-3.3-3.4-3.3h-2.4v6.6h2.4C106.4,23.8,107.9,22.4,107.9,20.5z"/>
			<path class="st1" d="M115.9,21.9h-5.2c0.2,1.2,1.1,2.1,2.3,2.1c0.8,0,1.5-0.3,2-0.8l0.5,0.5c-0.6,0.7-1.5,1-2.5,1
				c-1.9,0-3.1-1.3-3.1-3.2s1.3-3.2,3.1-3.2C115,18.4,116,19.8,115.9,21.9z M115.1,21.2c-0.1-1.2-0.9-2-2.1-2c-1.2,0-2.1,0.8-2.2,2
				H115.1z"/>
			<path class="st1" d="M117.2,18.4l2,5.4l2-5.4h0.9l-2.5,6.3h-1l-2.5-6.3H117.2z"/>
			<path class="st1" d="M128.8,21.6c0,1.9-1.3,3.2-3.2,3.2c-1.9,0-3.2-1.3-3.2-3.2c0-1.9,1.3-3.2,3.2-3.2
				C127.5,18.4,128.8,19.7,128.8,21.6z M123.4,21.6c0,1.4,0.9,2.4,2.3,2.4c1.3,0,2.3-1,2.3-2.4c0-1.4-0.9-2.4-2.3-2.4
				C124.3,19.2,123.4,20.2,123.4,21.6z"/>
			<path class="st1" d="M131.5,15.8v8.9h-0.9v-8.9H131.5z"/>
			<path class="st1" d="M139.3,18.4v6.3h-0.9v-1.4c-0.4,1-1.3,1.5-2.4,1.5c-1.5,0-2.4-0.9-2.4-2.5v-3.9h0.9v3.6
				c0,1.1,0.7,1.8,1.8,1.8c1.3,0,2.1-1,2.1-2.4v-3.1H139.3z"/>
			<path class="st1" d="M144.1,19.2c-1.3,0-2.2,1-2.2,2.4c0,1.4,0.9,2.4,2.2,2.4c0.8,0,1.5-0.3,2-0.8l0.5,0.6
				c-0.6,0.7-1.4,1.1-2.5,1.1c-1.8,0-3.1-1.3-3.1-3.2c0-1.9,1.3-3.2,3.1-3.2c1,0,1.9,0.3,2.4,0.9L146,20
				C145.5,19.5,144.9,19.2,144.1,19.2z"/>
			<path class="st1" d="M149.4,16.6c0,0.4-0.3,0.6-0.6,0.6s-0.6-0.3-0.6-0.6c0-0.4,0.3-0.6,0.6-0.6S149.4,16.2,149.4,16.6z
				 M149.3,18.4v6.3h-0.9v-6.3H149.3z"/>
			<path class="st1" d="M157.3,21.6c0,1.9-1.3,3.2-3.2,3.2c-1.9,0-3.2-1.3-3.2-3.2c0-1.9,1.3-3.2,3.2-3.2
				C156,18.4,157.3,19.7,157.3,21.6z M151.8,21.6c0,1.4,0.9,2.4,2.3,2.4c1.3,0,2.3-1,2.3-2.4c0-1.4-0.9-2.4-2.3-2.4
				C152.8,19.2,151.8,20.2,151.8,21.6z M155.8,16.2l-1.5,1.2h-0.9l1.4-1.6L155.8,16.2z"/>
			<path class="st1" d="M164.7,20.8v3.9h-0.9v-3.6c0-1.1-0.7-1.8-1.8-1.8c-1.2,0-2,0.8-2.1,2.1v3.4h-0.9v-6.3h0.9v1.4
				c0.4-1,1.3-1.4,2.4-1.4C163.8,18.4,164.7,19.3,164.7,20.8z"/>
			<path class="st1" d="M175.6,18.4v5.6c0,1.8-1.3,3-3.2,3c-1,0-1.8-0.3-2.6-0.9l0.4-0.7c0.6,0.5,1.3,0.8,2.1,0.8
				c1.4,0,2.3-0.9,2.3-2.2v-1c-0.4,0.8-1.3,1.3-2.3,1.3c-1.7,0-2.9-1.3-2.9-3c0-1.8,1.2-3,2.9-3c1.1,0,1.9,0.5,2.4,1.3v-1.3H175.6z
				 M174.7,21.4c0-1.3-0.9-2.3-2.2-2.3c-1.3,0-2.2,0.9-2.2,2.3c0,1.3,0.9,2.3,2.2,2.3C173.8,23.7,174.7,22.7,174.7,21.4z"/>
			<path class="st1" d="M180.9,18.4v0.9c-1.3,0-2.2,0.8-2.3,2.1v3.4h-0.9v-6.3h0.9v1.4C179.1,18.9,179.8,18.4,180.9,18.4z"/>
			<path class="st1" d="M185.8,24.7v-1c-0.5,0.7-1.3,1-2.3,1c-1.3,0-2.1-0.8-2.1-1.9c0-1.1,0.9-1.8,2.4-1.8h2.1v-0.4
				c0-0.9-0.6-1.5-1.7-1.5c-0.7,0-1.3,0.3-2,0.7l-0.4-0.7c0.8-0.5,1.5-0.9,2.6-0.9c1.6,0,2.4,0.8,2.4,2.2l0,4.2H185.8z M185.8,22.6
				v-0.8h-2c-1.1,0-1.6,0.3-1.6,1c0,0.7,0.6,1.2,1.5,1.2C184.7,24,185.5,23.5,185.8,22.6z"/>
			<path class="st1" d="M192.1,24.3c-0.4,0.3-0.9,0.5-1.4,0.5c-0.9,0-1.6-0.5-1.6-1.8v-3.6h-0.9v-0.7h0.9V17h0.9v1.7h2v0.7h-2v3.5
				c0,0.8,0.3,1.1,0.8,1.1c0.3,0,0.7-0.1,1-0.3L192.1,24.3z"/>
			<path class="st1" d="M194.5,16.6c0,0.4-0.3,0.6-0.6,0.6s-0.6-0.3-0.6-0.6c0-0.4,0.3-0.6,0.6-0.6S194.5,16.2,194.5,16.6z
				 M194.4,18.4v6.3h-0.9v-6.3H194.4z"/>
			<path class="st1" d="M198.3,19.2c-0.7,0-1.2,0.3-1.2,0.9c0,1.4,3.5,0.7,3.5,3c0,1.2-1.1,1.8-2.3,1.8c-0.9,0-1.8-0.3-2.4-0.9
				l0.4-0.7c0.5,0.5,1.4,0.8,2.1,0.8s1.3-0.3,1.4-0.9c0-1.5-3.5-0.8-3.5-3c0-1.2,1-1.7,2.2-1.7c0.8,0,1.5,0.2,2,0.6l-0.4,0.7
				C199.5,19.4,198.9,19.2,198.3,19.2z"/>
			<path class="st1" d="M210.8,21.9h-5.2c0.2,1.2,1.1,2.1,2.3,2.1c0.8,0,1.5-0.3,2-0.8l0.5,0.5c-0.6,0.7-1.5,1-2.5,1
				c-1.9,0-3.1-1.3-3.1-3.2s1.3-3.2,3.1-3.2C209.9,18.4,210.9,19.8,210.8,21.9z M210,21.2c-0.1-1.2-0.9-2-2.1-2
				c-1.2,0-2.1,0.8-2.2,2H210z"/>
			<path class="st1" d="M218.2,20.8v3.9h-0.9v-3.6c0-1.1-0.7-1.8-1.8-1.8c-1.2,0-2,0.8-2.1,2.1v3.4h-0.9v-6.3h0.9v1.4
				c0.4-1,1.3-1.4,2.4-1.4C217.3,18.4,218.2,19.3,218.2,20.8z"/>
			<path class="st1" d="M226.8,24.3c-0.4,0.3-0.9,0.5-1.4,0.5c-0.9,0-1.6-0.5-1.6-1.8v-3.6h-0.9v-0.7h0.9V17h0.9v1.7h2v0.7h-2v3.5
				c0,0.8,0.3,1.1,0.8,1.1c0.3,0,0.7-0.1,1-0.3L226.8,24.3z"/>
			<path class="st1" d="M229.3,16.6c0,0.4-0.3,0.6-0.6,0.6s-0.6-0.3-0.6-0.6c0-0.4,0.3-0.6,0.6-0.6S229.3,16.2,229.3,16.6z
				 M229.2,18.4v6.3h-0.9v-6.3H229.2z"/>
			<path class="st1" d="M236.9,21.9h-5.2c0.2,1.2,1.1,2.1,2.3,2.1c0.8,0,1.5-0.3,2-0.8l0.5,0.5c-0.6,0.7-1.5,1-2.5,1
				c-1.9,0-3.1-1.3-3.1-3.2s1.3-3.2,3.1-3.2C236,18.4,237,19.8,236.9,21.9z M236.1,21.2c-0.1-1.2-0.9-2-2.1-2c-1.2,0-2.1,0.8-2.2,2
				H236.1z"/>
			<path class="st1" d="M244.3,20.8v3.9h-0.9v-3.6c0-1.1-0.7-1.8-1.8-1.8c-1.2,0-2,0.8-2.1,2.1v3.4h-0.9v-6.3h0.9v1.4
				c0.4-1,1.3-1.4,2.4-1.4C243.4,18.4,244.3,19.3,244.3,20.8z"/>
			<path class="st1" d="M252.2,15.8v8.9h-0.9v-1.4c-0.5,0.9-1.3,1.4-2.5,1.4c-1.8,0-3-1.3-3-3.2c0-1.9,1.2-3.2,3-3.2
				c1.1,0,2,0.5,2.5,1.4v-4H252.2z M251.3,21.6c0-1.4-0.9-2.4-2.3-2.4c-1.3,0-2.3,1-2.3,2.4c0,1.4,0.9,2.4,2.3,2.4
				C250.3,24,251.3,23,251.3,21.6z"/>
			<path class="st1" d="M258.5,24.7v-1c-0.5,0.7-1.3,1-2.3,1c-1.3,0-2.1-0.8-2.1-1.9c0-1.1,0.9-1.8,2.4-1.8h2.1v-0.4
				c0-0.9-0.6-1.5-1.7-1.5c-0.7,0-1.3,0.3-2,0.7l-0.4-0.7c0.8-0.5,1.5-0.9,2.6-0.9c1.6,0,2.4,0.8,2.4,2.2l0,4.2H258.5z M258.4,22.6
				v-0.8h-2c-1.1,0-1.6,0.3-1.6,1c0,0.7,0.6,1.2,1.5,1.2C257.4,24,258.2,23.5,258.4,22.6z"/>
		</g>
	</g>
	<g>
		<g>
			<circle class="st1" cx="76.2" cy="20" r="15.6"/>
		</g>
		<g>
			<path class="st2" d="M81.6,16.9l-5.4-1.7l-5.4,1.8v6.6l5.4,1.9l5.4-1.9L81.6,16.9z M76.2,16l3.7,1.2l-3.5,1.1l-3.7-1.1L76.2,16z
				 M71.7,17.8l4.1,1.2v5.5L71.7,23V17.8z M76.7,24.4V19l4.2-1.3v5.2L76.7,24.4z"/>
			<path class="st2" d="M86.2,19.6c-0.1-2.3-1-4.6-2.6-6.3c-1.6-1.7-3.7-2.9-6-3.2C77.2,10,76.7,10,76.2,10c-2.2,0-4.3,0.7-6.1,2.1
				l-0.1,0.1l-1.2-1.1C68.8,11,68.8,11,68.7,11c-0.1,0-0.2,0.1-0.3,0.2l-1,4.1c0,0.1,0,0.2,0,0.2c0,0.1,0.1,0.1,0.2,0.1
				c0,0,0.1,0,0.1,0l4-1.3c0.1,0,0.2-0.1,0.2-0.2c0-0.1,0-0.2-0.1-0.3l-1.1-1.1l0.1-0.1c1.5-1.1,3.4-1.7,5.3-1.7c0.2,0,0.3,0,0.5,0
				c4.6,0.3,8.4,4.1,8.5,8.7c0.1,2.4-0.8,4.8-2.5,6.6c-1.7,1.8-4,2.7-6.4,2.7c-5,0-9.1-4.1-9.1-9c0-0.3,0-0.5,0-0.8
				c0-0.3-0.2-0.5-0.4-0.5h-0.1c-0.3,0-0.5,0.2-0.5,0.5c0,0.3,0,0.6,0,0.9c0,5.5,4.5,10,10,10c2.8,0,5.3-1.1,7.2-3.1
				C85.4,25,86.3,22.4,86.2,19.6z"/>
		</g>
	</g>
</g>
</svg>
